# xmcd
#
# Track frame offsets:
#	150
#	15397
#	35197
#	58882
#	77722
#	90172
#	102592
#	125047
#	143267
#	151902
#	166517
#	177045
#	203772
#	219790
#	254597
#	260050
#	268932
#	284672
#	292440
#
# Disc length: 4023 seconds
#
# Revision: 2
# Processed by: cddbd v1.5.1PL0 Copyright (c) Steve Scherf et al.
# Submitted via: audiograbber 1.83.01
#
DISCID=190fb513
DTITLE=James Brown - The King of Soul
DYEAR=1900
DGENRE=
TTITLE0=Superbad
TTITLE1=You Can앖 Keep A Good Man Down
TTITLE2=Today
TTITLE3=Bring it on
TTITLE4=Prisoner of Love
TTITLE5=Give it up or turn it a Loose
TTITLE6=It압 to funky in here
TTITLE7=Doing it to Death
TTITLE8=Try me
TTITLE9=Get on the Good Foot
TTITLE10=Get up offa that thing
TTITLE11=Georgia on my Mind
TTITLE12=I got the feeling
TTITLE13=Its a Man압 Man압 World
TTITLE14=Cold Sweat
TTITLE15=I Can앖 stand myself
TTITLE16=I got you
TTITLE17=Please, Please, Please
TTITLE18=Papa압 got a brand new Pig Bag
EXTD=
EXTT0=
EXTT1=
EXTT2=
EXTT3=
EXTT4=
EXTT5=
EXTT6=
EXTT7=
EXTT8=
EXTT9=
EXTT10=
EXTT11=
EXTT12=
EXTT13=
EXTT14=
EXTT15=
EXTT16=
EXTT17=
EXTT18=
PLAYORDER=
